# xmcd
#
# Track frame offsets:
#	150
#	16114
#	34725
#	49422
#	79813
#	92562
#	117064
#	130410
#	151278
#	167621
#	183950
#
# Disc length: 2663 seconds
#
# Revision: 0
# Processed by: cddbd v1.5.2PL0 Copyright (c) Steve Scherf et al.
# Submitted via: audiograbber 1.83.01
#
DISCID=7f0a650b
DTITLE=Rutishuser&Co - RCO
DYEAR=2007
DGENRE=Blues Rock
TTITLE0=Sex And Rock'n'Roll
TTITLE1=All Night Train
TTITLE2=Last Hand Of The Night
TTITLE3=Jack Daniels
TTITLE4=Monkey Around
TTITLE5=s'Paradies
TTITLE6=Holzwurm
TTITLE7=You Better Get Your Shit Together
TTITLE8=Giorgio Tomato
TTITLE9=Too Much Stuff
TTITLE10=Harley Fan
EXTD=
EXTT0=
EXTT1=
EXTT2=
EXTT3=
EXTT4=
EXTT5=
EXTT6=
EXTT7=
EXTT8=
EXTT9=
EXTT10=
PLAYORDER=
